<?xml version="1.0" standalone="no"?><!DOCTYPE svg PUBLIC "-//W3C//DTD SVG 1.1//EN" "http://www.w3.org/Graphics/SVG/1.1/DTD/svg11.dtd"><svg t="1507726571671" class="icon" style="" viewBox="0 0 1024 1024" version="1.1" xmlns="http://www.w3.org/2000/svg" p-id="9168" xmlns:xlink="http://www.w3.org/1999/xlink" width="16" height="16"><defs><style type="text/css"></style></defs><path d="M598.144 511.994l-289.824 289.83c-17.030 17.024-17.030 44.64 0 61.658l12.339 12.333c17.024 17.030 44.627 17.030 61.658 0l320.614-320.627c0.006-0.006 0.019-0.013 0.026-0.026l12.333-12.333c17.030-17.024 17.030-44.634 0-61.651l-12.333-12.346c-0.038-0.045-0.090-0.077-0.128-0.115l-320.525-320.531c-17.030-17.037-44.634-17.037-61.658 0l-12.339 12.333c-17.030 17.030-17.030 44.627 0 61.658l289.837 289.818z" p-id="9169" fill="#ffffff"></path></svg>