<?xml version="1.0" standalone="no"?><!DOCTYPE svg PUBLIC "-//W3C//DTD SVG 1.1//EN" "http://www.w3.org/Graphics/SVG/1.1/DTD/svg11.dtd"><svg t="1507802550880" class="icon" style="" viewBox="0 0 1024 1024" version="1.1" xmlns="http://www.w3.org/2000/svg" p-id="2696" xmlns:xlink="http://www.w3.org/1999/xlink" width="16" height="16"><defs><style type="text/css"></style></defs><path d="M882.608759 626.358561c-17.318434 0-31.376615 14.063297-31.376615 31.395034l0 208.000288c0 17.263176-14.120602 31.387871-31.383778 31.387871L202.658629 897.141754c-17.323551 0-31.381731-14.124695-31.381731-31.387871L171.276898 657.753595c0-17.331737-14.058181-31.395034-31.378661-31.395034-17.323551 0-31.381731 14.063297-31.381731 31.395034l0 208.000288c0 51.92051 42.23901 94.175893 94.142124 94.175893l617.190761 0c51.968605 0 94.14417-42.255383 94.14417-94.175893L913.99356 657.753595C913.992537 640.422881 899.933333 626.358561 882.608759 626.358561zM229.832526 614.557794c55.482639 0 104.438631-27.748994 134.25061-69.939909 32.444946 46.583968 86.23299 77.283154 147.171897 77.283154 60.939931 0 114.727974-30.699186 147.110499-77.283154 29.937846 42.122353 78.830393 69.939909 134.310985 69.939909 90.815355 0 164.747181-73.957409 164.747181-164.804487 0-11.114129-2.321882-22.921036-5.14723-35.288714-0.187265-1.130753 0.061398-2.260483-0.24764-3.39226l-0.629333-2.255367c-0.251733-0.944512-0.12382-1.569752-0.3776-2.577708-0.12382-0.503467-0.503467-0.87902-0.688685-1.379417L865.09999 87.301322c-3.703345-13.68979-16.064884-23.232121-30.246885-23.232121L187.595562 64.069201c-14.184047 0-26.609031 9.54233-30.3134 23.294542L72.114434 404.860864c-0.121773 0.500397-0.50142 0.812505-0.626263 1.315972-0.24764 0.944512-0.125867 1.633197-0.379647 2.509147l-0.627287 2.38635c-0.311085 1.130753 0 2.260483-0.185218 3.39226-2.888793 12.367679-5.209652 24.174586-5.209652 35.288714C65.086367 540.600385 139.01717 614.557794 229.832526 614.557794z" p-id="2697" fill="#2395ff"></path></svg>