<?xml version="1.0" standalone="no"?><!DOCTYPE svg PUBLIC "-//W3C//DTD SVG 1.1//EN" "http://www.w3.org/Graphics/SVG/1.1/DTD/svg11.dtd"><svg t="1507802174932" class="icon" style="" viewBox="0 0 1024 1024" version="1.1" xmlns="http://www.w3.org/2000/svg" p-id="2425" xmlns:xlink="http://www.w3.org/1999/xlink" width="16" height="16"><defs><style type="text/css"></style></defs><path d="M950.482101 425.89083c-4.809539-25.411763-20.166295-41.698704-38.801724-41.288358h-3.935636c-64.159252 0-116.405173-51.863205-116.405173-115.585506 0-20.985964 10.055007-44.021609 10.110265-44.185338 9.946536-22.160719 2.295276-49.349965-17.70729-63.231113l-1.092891-0.765433-111.977328-61.753459-1.148149-0.491187c-6.667863-2.869351-13.935384-4.317329-21.64088-4.317329-15.95846 0-31.587416 6.311753-41.807175 16.859993-13.716396 14.018272-56.781214 50.359968-91.538832 50.359968-35.140335 0-78.478376-37.080523-92.195796-51.344389-10.275018-10.766205-26.068725-17.187451-42.135656-17.187451-7.596002 0-14.700817 1.393743-21.259186 4.1536l-1.202385 0.51984-115.912963 63.203484-1.148149 0.792039c-20.056801 13.853519-27.708062 41.015136-17.815761 63.148225 0.109494 0.218988 10.1645 23.254633 10.1645 44.239574 0 63.7223-52.245921 115.585505-116.460431 115.585505h-3.880378c-18.690688-0.436952-33.992185 15.875572-38.856983 41.288358-0.381693 2.02103-9.344832 49.622164-9.344832 87.167269 0 37.489846 8.963139 85.089957 9.344832 87.113033 4.809539 25.084305 19.783579 41.314964 38.145786 41.314965h4.590551c64.214511 0 116.460432 51.80897 116.460432 115.53127 0 20.985964-10.055007 44.048215-10.1645 44.211944-9.892301 22.13309-2.295276 49.349965 17.706267 63.23009l1.092891 0.765433 109.847827 60.990073 1.147126 0.437975c6.612605 2.951215 13.881149 4.371564 21.532409 4.371564 16.122189 0 31.861662-6.558369 42.081421-17.597797 12.842493-13.880125 57.656141-53.556777 93.561909-53.556776 36.123732 0 80.281441 39.457664 94.217848 54.649667 10.218736 11.148921 26.068725 17.871019 42.353621 17.87102 7.487531 0 14.646582-1.421372 21.150715-4.207836l1.202385-0.491187 113.836675-62.46568 1.092891-0.765433c20.056801-13.880125 27.707039-41.097 17.815761-63.174831-0.109494-0.218988-10.165524-23.281239-10.165524-44.267203 0-63.7223 52.245921-115.53127 116.405173-115.53127h3.880377c18.690688 0.328481 34.046421-15.903202 38.856983-41.314964 0.382717-2.023076 9.400091-49.623187 9.400091-87.113034-0.001023-37.546128-9.018398-85.147262-9.401114-87.169315z m-51.589982 163.460886c-89.189322 4.589528-160.290683 78.040401-160.290683 167.667697 0 30.002314 11.749602 58.693774 14.318101 64.651462l-106.349144 58.366316h-0.164752c-1.529843 0-2.951215-0.545422-3.497661-0.928139-1.912559-2.076288-17.269315-18.472723-39.457663-34.812877-33.117258-24.37413-64.596204-36.779671-93.616145-36.779671-28.745694 0-60.006675 12.132318-92.905969 36.069497-22.078855 16.066931-37.380352 32.18912-39.292912 34.211173-0.49221 0.327458-1.912559 0.873903-3.443425 0.873903h-0.217964L271.395642 821.72511c2.514263-5.792936 14.372336-34.648125 14.372335-64.705697 0-89.627297-71.154573-163.077146-160.289659-167.667697-1.310855-7.104815-8.251941-46.671972-8.251941-76.292594 0-29.730115 6.941086-69.297272 8.251941-76.346829 89.135086-4.590552 160.28966-78.041424 160.289659-167.694303 0-29.921473-11.695367-58.612932-14.3181-64.597227l108.37222-59.10412h0.382716c1.804089 0 3.497661 0.655939 4.044106 1.038656 1.74883 1.830695 16.996093 17.378809 38.911218 32.899294 32.462343 22.953781 63.175855 34.593889 91.376127 34.59389 27.870768 0 58.366316-11.422144 90.609671-33.93795 21.806655-15.193027 36.944424-30.467919 38.693254-32.270985 0.601704-0.355087 2.240017-1.011027 4.044106-1.011026h0.437975l104.600313 57.738005c-2.51324 5.874801-14.3181 34.648125-14.3181 64.651463 0 89.653903 71.100338 163.103752 160.290683 167.694303 1.257643 7.077186 8.251941 46.616714 8.251941 76.346829-0.001023 29.674856-6.996344 69.242014-8.253988 76.292594z m-388.674207-230.816947c-85.472674 0-155.043169 69.050656-155.043168 153.922649 0 84.871993 69.569472 153.896042 155.043168 153.896042S665.262104 597.330434 665.262104 512.457418c0-84.871993-69.570495-153.922648-155.044192-153.922649z m0 255.517512c-56.398498 0-102.30606-45.578058-102.30606-101.594863 0-56.016805 45.906539-101.567233 102.30606-101.567234s102.30606 45.551452 102.306061 101.567234c0 56.016805-45.906539 101.594863-102.306061 101.594863z" fill="#ffffff" p-id="2426"></path></svg>