<?xml version="1.0" standalone="no"?><!DOCTYPE svg PUBLIC "-//W3C//DTD SVG 1.1//EN" "http://www.w3.org/Graphics/SVG/1.1/DTD/svg11.dtd"><svg t="1507894485378" class="icon" style="" viewBox="0 0 1024 1024" version="1.1" xmlns="http://www.w3.org/2000/svg" p-id="1155" xmlns:xlink="http://www.w3.org/1999/xlink" width="16" height="16"><defs><style type="text/css"></style></defs><path d="M512.04096 865.19808c194.3296 0 353.32608-157.80352 353.32608-350.67904S706.37056 163.84 512.04096 163.84 158.72 321.64864 158.72 514.51904s158.99648 350.67904 353.32096 350.67904z m-35.328-479.98976v-56.9856h64.04096v56.9856h130.28864v26.30144h-130.29376v35.06688h108.20608a287.872 287.872 0 0 1-15.45728 56.9856c-13.25056 37.25824-26.50112 54.784-26.50112 54.784l209.78688 67.9424a327.09632 327.09632 0 0 1-15.45728 37.25824 268.3904 268.3904 0 0 1-22.08256 35.072l-200.95488-94.24896s-37.53984 41.64608-77.312 59.17696c-37.53984 17.536-83.91168 30.68416-130.28864 17.536-48.58368-10.9568-81.70496-41.64096-77.312-98.62656 6.656-56.98048 66.29376-76.70272 117.08416-76.70272s143.52384 32.8704 143.52384 32.8704a321.32608 321.32608 0 0 0 15.45728-37.25824 101.03296 101.03296 0 0 0 8.832-37.25824H379.5456v-19.72224h97.16224v-37.26336H355.25632V380.8256h121.45152v4.38272z m55.20896 197.25824s-59.6224 70.144-130.28864 70.144-86.12352-32.87552-86.12352-56.9856 15.45728-50.41152 75.07968-54.784 141.312 41.64608 141.312 41.64608z" fill="#1AA1E6" p-id="1156"></path></svg>