<?xml version="1.0" standalone="no"?><!DOCTYPE svg PUBLIC "-//W3C//DTD SVG 1.1//EN" "http://www.w3.org/Graphics/SVG/1.1/DTD/svg11.dtd"><svg t="1507894953179" class="icon" style="" viewBox="0 0 1024 1024" version="1.1" xmlns="http://www.w3.org/2000/svg" p-id="4533" xmlns:xlink="http://www.w3.org/1999/xlink" width="16" height="16"><defs><style type="text/css"></style></defs><path d="M695.235076 667.990023m-20.55541 0a16.9 16.9 0 1 0 41.110821 0 16.9 16.9 0 1 0-41.110821 0Z" p-id="4534" fill="#ef3b14"></path><path d="M627.852251 667.990023m-20.55541 0a16.9 16.9 0 1 0 41.110821 0 16.9 16.9 0 1 0-41.110821 0Z" p-id="4535" fill="#ef3b14"></path><path d="M559.25313 667.990023m-20.55541 0a16.9 16.9 0 1 0 41.110821 0 16.9 16.9 0 1 0-41.110821 0Z" p-id="4536" fill="#ef3b14"></path><path d="M511.939197 13.86578c-275.004632 0-497.830146 222.947143-497.830146 497.830146S237.056195 1009.526072 511.939197 1009.526072 1009.890973 786.578929 1009.890973 511.695926 786.94383 13.86578 511.939197 13.86578zM767.969605 668.233282c0 39.286376-31.866968 71.153344-71.153344 71.153344l-369.754128 0c-39.286376 0-71.153344-31.866968-71.153344-71.153344L255.90879 415.000356l511.939185 0L767.847975 668.233282zM767.969605 374.862573 256.03042 374.862573l0-19.460744c0-39.286376 31.866968-71.153344 71.153344-71.153344l369.754128 0c39.286376 0 71.153344 31.866968 71.153344 71.153344L768.091234 374.862573z" p-id="4537" fill="#ef3b14"></path></svg>