<?xml version="1.0" standalone="no"?><!DOCTYPE svg PUBLIC "-//W3C//DTD SVG 1.1//EN" "http://www.w3.org/Graphics/SVG/1.1/DTD/svg11.dtd"><svg t="1507802398252" class="icon" style="" viewBox="0 0 1024 1024" version="1.1" xmlns="http://www.w3.org/2000/svg" p-id="1819" xmlns:xlink="http://www.w3.org/1999/xlink" width="16" height="16"><defs><style type="text/css"></style></defs><path d="M526.336 296.96c34.816-7.168 61.44-36.864 61.44-73.728 0-41.984-33.792-75.776-75.776-75.776s-75.776 33.792-75.776 75.776c0 34.816 23.552 63.488 55.296 72.704L307.2 619.52 101.376 439.296c18.432-11.264 30.72-30.72 30.72-53.248 0-34.816-28.672-62.464-63.488-62.464-34.816 0-63.488 27.648-63.488 62.464 0 34.816 28.672 62.464 63.488 62.464 9.216 0 17.408-2.048 25.6-5.12l70.656 352.256c33.792 46.08 176.128 79.872 347.136 79.872 166.912 0 307.2-35.84 345.088-79.872l86.016-347.136-203.776 174.08L526.336 296.96zM955.392 323.584c-34.816 0-63.488 27.648-63.488 62.464 0 34.816 28.672 62.464 63.488 62.464 34.816 0 63.488-27.648 63.488-62.464C1018.88 351.232 990.208 323.584 955.392 323.584z" fill="#ffff66" p-id="1820"></path></svg>