<?xml version="1.0" standalone="no"?><!DOCTYPE svg PUBLIC "-//W3C//DTD SVG 1.1//EN" "http://www.w3.org/Graphics/SVG/1.1/DTD/svg11.dtd"><svg t="1507726995844" class="icon" style="" viewBox="0 0 1024 1024" version="1.1" xmlns="http://www.w3.org/2000/svg" p-id="12917" xmlns:xlink="http://www.w3.org/1999/xlink" width="16" height="16"><defs><style type="text/css"></style></defs><path d="M512 512m-512 0a512 512 0 1 0 1024 0 512 512 0 1 0-1024 0Z" fill="#FF7358" p-id="12918"></path><path d="M681.3 794.1H342.7c-41.5 0-75.2-33.7-75.2-75.2V342.7L493.2 418h37.6l225.7-75.2v376.1c0 41.5-33.7 75.2-75.2 75.2zM531.7 604.9l54.6-0.1c13.7 0.1 18.5-7 18.8-15.5 0.2-7.4-6.8-21.4-19.1-21.7h-54.6v-13.2s41.4-42.3 52.2-52.1c10.7-9.8 13.4-17.5 6.8-25.4-6.7-8.1-18.6-7.6-27.2-0.4-8.8 7.3-51.1 46.6-51.1 46.6s-36.3-37.5-44.2-45.1c-7.1-6.8-22-13.4-30.1-4.3-8.4 9.5-1.9 21.5 3.4 26.7 5.3 5.2 50.7 53.2 50.7 53.2l-0.1 14.5h-57c-8.4 0-15.9 15-15.6 22.9 0.3 7.9 6.6 14.1 15.6 14.1 8.9 0 56.8-0.3 56.8-0.3l-0.1 40.3h-59c-8.4 0-15.5 8.5-15.8 16.4-0.3 8 6.3 18.8 15.8 18.8h58.9s-0.1 13.8 0.3 19.5c0.8 12.8 9.2 18.1 20.5 18.3 11.3 0.2 19.2-9.2 19.2-17.6 0-7-0.2-20.2-0.2-20.2s49-0.1 58.2 0c9.3 0.1 16.2-9.3 15.8-18.8-0.3-9.5-6.1-16.8-20.1-16.8h-53.6l0.2-39.8z m-0.9-224.6h-37.6l-225.7-75.2c0-41.6 33.7-75.2 75.2-75.2h338.5c41.5 0 75.2 33.7 75.2 75.2l-225.6 75.2z" fill="#FFFFFF" p-id="12919"></path></svg>