<?xml version="1.0" standalone="no"?><!DOCTYPE svg PUBLIC "-//W3C//DTD SVG 1.1//EN" "http://www.w3.org/Graphics/SVG/1.1/DTD/svg11.dtd"><svg t="1507725808361" class="icon" style="" viewBox="0 0 1024 1024" version="1.1" xmlns="http://www.w3.org/2000/svg" p-id="7437" xmlns:xlink="http://www.w3.org/1999/xlink" width="16" height="16"><defs><style type="text/css"></style></defs><path d="M412.032 902.144c-8.192 0-16.384-3.328-22.272-9.984-77.44-86.656-202.496-87.552-205.184-87.552l-0.128 0c-16.384 0-29.696-13.184-29.824-29.568-0.128-16.384 13.056-29.824 29.44-29.952 6.144-0.384 153.984-0.128 250.112 107.392 11.008 12.288 9.856 31.104-2.432 41.984C426.24 899.584 419.072 902.144 412.032 902.144L412.032 902.144zM611.584 902.016c-7.296 0-14.464-2.56-20.224-7.936-12.032-11.136-12.8-29.952-1.664-41.984 99.456-107.392 244.224-107.264 249.984-107.008 16.512 0.128 29.696 13.568 29.44 30.08-0.128 16.384-13.44 29.44-29.696 29.44l-0.256 0 0 0c-2.432 0-125.056 0.768-205.824 87.936C627.584 898.816 619.52 902.016 611.584 902.016L611.584 902.016zM559.104 750.72l-94.336 0c-2.944 0-5.888-0.384-8.704-1.28-100.608-12.928-186.24-71.296-241.28-164.992-64-108.8-78.72-249.728-36.48-350.72 4.608-10.88 15.104-18.048 26.88-18.304l8.96-0.128c56.704 0 109.568 10.752 157.824 31.872 34.816-63.616 74.496-111.872 118.4-143.872 2.304-2.048 4.992-3.712 7.936-4.992l0 0c9.216-3.968 19.84-3.072 28.288 2.304 1.408 0.896 2.816 2.048 4.096 3.2 43.904 32.256 82.56 79.872 117.632 144.768 49.152-22.144 103.296-33.408 161.408-33.408l9.088 0.128c11.776 0.256 22.272 7.424 26.88 18.304 42.24 100.992 27.52 241.92-36.48 350.72-55.168 93.568-140.672 152.064-241.28 164.992C565.12 750.208 562.176 750.72 559.104 750.72L559.104 750.72zM511.744 928c-16.384 0-29.696-13.312-29.696-29.696L482.048 720.896c0-16.512 13.312-29.696 29.696-29.696 16.384 0 29.696 13.312 29.696 29.696l0 177.28C541.44 914.688 528.128 928 511.744 928L511.744 928zM511.744 928" fill="#1296db" p-id="7438"></path></svg>