<?xml version="1.0" standalone="no"?><!DOCTYPE svg PUBLIC "-//W3C//DTD SVG 1.1//EN" "http://www.w3.org/Graphics/SVG/1.1/DTD/svg11.dtd"><svg t="1507802336369" class="icon" style="" viewBox="0 0 1024 1024" version="1.1" xmlns="http://www.w3.org/2000/svg" p-id="1077" xmlns:xlink="http://www.w3.org/1999/xlink" width="16" height="16"><defs><style type="text/css"></style></defs><path d="M512 167.342c145.817 0 265.121 119.306 265.121 265.121v145.817l46.397 185.584h-623.035l46.397-185.584v-145.817c0-145.817 119.306-265.121 265.121-265.121M512 101.061c-185.584 0-331.402 145.817-331.402 331.402v132.561l-66.281 265.121h795.364l-66.281-265.121v-132.561c0-185.584-145.817-331.402-331.402-331.402v0z" p-id="1078" fill="#ffffff"></path><path d="M512 962.707c-72.909 0-132.561-59.652-132.561-132.561v0h66.281c0 39.769 26.511 66.281 66.281 66.281s66.281-26.511 66.281-66.281v0h66.281c0 72.909-59.652 132.561-132.561 132.561z" p-id="1079" fill="#ffffff"></path></svg>