<?xml version="1.0" standalone="no"?><!DOCTYPE svg PUBLIC "-//W3C//DTD SVG 1.1//EN" "http://www.w3.org/Graphics/SVG/1.1/DTD/svg11.dtd"><svg t="1507770356146" class="icon" style="" viewBox="0 0 1024 1024" version="1.1" xmlns="http://www.w3.org/2000/svg" p-id="2509" xmlns:xlink="http://www.w3.org/1999/xlink" width="16" height="16"><defs><style type="text/css"></style></defs><path d="M692.23 380.49c2.05-0.22 4.1-0.64 5.94-1.64 1.53 0.64 3.02 1.6 4.77 1.46 15.37 0.03 30.74-0.08 46.11 0.05-1.16 4.61-5.64 6.95-7.68 11.05-3.46 3.24-5.77 7.4-9.08 10.78-5.16 7.41-11 14.22-16.63 21.24-1.77 3.47-5.34 5.46-7.3 8.77-1.21 2.12-3.13 3.71-4.33 5.84-1.45 2.76-4.22 4.47-5.75 7.16-1.64 2.72-4.41 4.55-5.86 7.42-6.14 7.8-12.68 15.26-18.53 23.3-4.98 5.04-8.48 12.66-15.9 14.46-17.59 0.06-35.18 0.05-52.77 0-0.54-0.64-1.6-1.91-2.13-2.55 7.05-9.15 14.42-17.99 21.51-27.06 2.07-3.01 5.06-5.28 6.71-8.61 7.39-8.29 13.69-17.45 21.07-25.74 1.84-3.37 5.11-5.63 6.9-9.03 5.61-6.81 11.29-13.54 16.32-20.82 3.21-2.88 4.97-6.91 8.23-9.74 2.57-2.35 4.77-5.6 8.4-6.34zM123.31 380.31c12.14-0.01 24.27 0.01 36.4-0.01 0.29 3.81 2.16 7.3 1.91 11.17 16.96 0.02 33.92-0.04 50.87 0.03 0.1 20.66-0.09 41.33 0.1 61.99-9.94 0.31-19.88 0.04-29.81 0.14-0.26-10.77-0.07-21.55-0.11-32.33-7.06 0.01-14.13-0.05-21.19 0.04 0.06 9.58 0 19.16 0.04 28.74 0.26 1.48-1.1 2.46-1.83 3.56-12.13-0.03-24.25-0.01-36.37-0.01 0-24.44 0.01-48.88-0.01-73.32z" p-id="2510" fill="#2395ff"></path><path d="M218.68 380.66c1.4-0.17 2.81-0.34 4.23-0.35 24.81-0.07 49.63 0.11 74.44-0.09 0.29 9.28 0.06 18.57 0.14 27.86 0.26 1.56-1.48 2.4-2.53 3.17-2.88 0.17-5.76 0.04-8.64 0.05 0.01 5.13 0.01 10.26 0 15.39 6.59-0.02 13.17 0.03 19.76-0.04 0.28-15.45 0.04-30.9 0.13-46.35 15.48 0.02 30.97-0.01 46.45 0.01 0.03 15.2-0.12 30.41 0.07 45.6 0.82 1.01 1.8 2.46 3.29 2.35 14.92 0.05 29.84 0.01 44.76 0.01 0.01 10.35 0.02 20.7-0.01 31.05-16.05 0.17-32.1-0.05-48.15 0.12 0.04 29.09 0.06 58.17-0.01 87.26 3.33 0.1 6.67 0.08 10.01 0.07-0.02-21.64-0.04-43.29 0.02-64.93 12.66-0.22 25.34 0.02 38.01-0.12 0.33 33.43 0.03 66.88 0.16 100.32 0.18 1.61-0.42 3.11-1.22 4.47-15.62 0.04-31.24 0-46.86 0.03-0.19 8.95-0.04 17.91-0.08 26.87 15.44 0.1 30.88 0.02 46.33 0.04 0.43 0.49 1.31 1.47 1.74 1.96 0.13 9.17 0.07 18.35 0.05 27.53 0.35 2.09-1.97 3.27-3.75 3.22-26.34 0.03-52.68 0-79.01 0.02-3.56-0.1-7.44 0.64-10.54-1.56-0.01-19.36 0.01-38.71-0.01-58.07-3.86 0.07-7.86 0.4-11.24-1.83 0.16-12.06-0.34-24.16 0.24-36.19 2.4-2.79 6.48-1.43 9.68-1.8 0.16-26.91 0.01-53.83 0.07-80.74 0.02-2.21-0.01-4.41-0.25-6.6-6.54-0.03-13.09 0.01-19.63-0.03 0.05 13.31-0.13 26.61 0.09 39.92 3.59 0.5 8.45-1.54 10.99 1.64 0.15 9.72 0.07 19.45 0.02 29.18-3.88-0.53-7.27 1.82-11.12 1.45 0.07 37.5-0.06 75 0.07 112.49-1.32 0.9-2.57 2.29-4.32 2.12-17.03 0.02-34.07 0.02-51.11 0-1.75 0.15-3.07-1.12-4.38-2.03 0.42-9.81-0.57-19.71 0.51-29.46 3.62 0.2 7.39 0.5 10.62-1.48 0.11-27.25 0.05-54.51 0.03-81.76-9.63 0.14-19.26-0.1-28.88 0.12-0.69-1.16-2.23-2.03-2.07-3.51-0.04-8.04 0-16.08-0.01-24.12-0.06-1.53 0.47-2.98 0.86-4.43 10-0.68 20.06 0.1 30.07-0.42-0.02-13.41 0.31-26.83-0.17-40.22-6.2-0.28-12.65 0.8-18.69-0.61l-0.47-0.98c-0.16-9.65-0.03-19.31-0.06-28.96 6.63-0.06 13.26 0.04 19.89-0.08 0.04-5.59-0.03-11.19 0.04-16.78-5.75-0.29-11.52 0-17.28-0.16-1.36-0.57-2.97-1.46-2.64-3.21 0.18-9.13-0.48-18.31 0.36-27.41z" p-id="2511" fill="#2395ff"></path><path d="M362.7 380.25c90.55 0.15 181.09-0.01 271.64 0.08 2.69 5.85 0.93 12.48 1.46 18.7 0.5 3.79-1.69 7.16-1.34 10.95-2.17 4.64-5.09 9.09-8.99 12.49-3.97 3.41-6.36 8.17-10.27 11.66-2.31 3.63-5.19 6.76-8.16 9.85-2.06 4.11-6.42 6.39-8.46 10.52-2.4 3.26-5.81 5.7-7.62 9.43-4.51 3.94-7.41 9.18-11.73 13.3-2.31 4.56-6.83 7.32-9.32 11.74-2.45 3.16-6.03 5.39-7.89 9.02-2.18 3.76-6.3 5.93-8.34 9.79-1.3 2.22-3.48 3.72-5.05 5.73-1.07 2.25-2.36 4.42-3.22 6.76-0.22 41.44 0.16 82.91-0.19 124.36-40.31-0.09-80.62-0.02-120.93-0.04-0.65-0.6-1.29-1.2-1.93-1.77 0.6-1.18 1.33-2.37 1.18-3.74-0.02-6.38 0.04-12.76-0.03-19.13 0.03-1.4-0.82-2.59-1.21-3.88 1.5-0.61 2.98-1.51 4.67-1.32 21.36 0.02 42.71 0.03 64.07 0.01 2.11 0.37 3.6-1.83 3.37-3.75V472c0.04-4.44-0.15-8.88 0.2-13.31 4.81-0.7 9.94-1.14 14.58 0.6 2.99 0.35 6.05 0.21 8.87-0.94 4.05-0.4 8.14-0.06 12.22-0.16 5.49-5.8 11.3-11.29 16.81-17.07 3.22-5.9 9.46-9.3 12.92-15.02 3.67-5.26 10.1-8.43 12.16-14.8-69.84 0.02-139.68 0.01-209.53 0.01-0.02-10.35-0.14-20.71 0.06-31.06zM815.61 385.56c1.72-1.82 3.31-4.29 5.65-5.19 19.01-0.16 38.03-0.02 57.04-0.06 0.88 3.22-1.97 5.11-3.78 7.23-4.78 7.38-10.88 13.73-15.85 20.97-4.7 4.79-7.9 10.78-12.53 15.64-3.52 4.18-6.08 9.12-10.08 12.88-3.4 4.28-6.18 9.07-10.05 12.96-3.45 4.26-6.24 9.04-10.08 12.98-8.79 11.7-17.82 23.21-27.01 34.57-2.83 3.6-5.16 7.6-8.52 10.77-3.72 5.23-7.8 10.23-11.51 15.51-3.11 2.99-4.95 6.95-8.27 9.78-5.09 7.81-11.7 14.41-16.75 22.26-3.97 4.1-7.15 8.88-10.57 13.44-4.5 4.6-7.57 10.37-12.05 14.99-5.37 7.54-11.37 14.59-17.09 21.83-1.15 2.76-4.53 4.05-4.81 7.22 47.75 0.26 95.51 0.04 143.27 0.11 0.12-21.64 0.05-43.28 0.04-64.92 16.35-0.1 32.7-0.07 49.05-0.03l0.6 0.58c0.14 31.68-0.07 63.36 0.1 95.03-1.31 0.95-2.62 2.23-4.37 2.05-89.03 0.04-178.07-0.01-267.1 0.02-1.82 0.04-3.59-0.37-5.34-0.72-1.54-4.33-0.66-8.98-0.87-13.46 0.27-5.75-0.67-11.63 0.67-17.29 7.13-0.37 14.68 1.38 21.4-1.66 2.7-1.45 3.42-4.67 5.62-6.63 2.72-2.37 4.1-5.82 6.71-8.29 2.38-2.65 4.17-5.78 6.8-8.22 4.68-7.27 10.8-13.37 15.62-20.53 1.57-2.53 4.01-4.37 5.59-6.89 6.1-8.58 13.22-16.27 19.36-24.83 1.96-3.37 5.22-5.71 7.07-9.16 5.16-4.93 8.26-11.56 13.4-16.52 3.86-6.04 8.77-11.27 13.02-17 3.19-2.88 4.91-6.92 8.08-9.84 8.8-11.87 18.27-23.18 26.98-35.1 5.01-4.81 7.95-11.31 13-16.07 4.99-7.58 11.32-14.15 16.38-21.69 4.93-5.09 8.38-11.37 13.35-16.42 2.02-3.88 5.61-6.56 7.83-10.3zM123.32 476.4c16.47 0.01 32.95 0.01 49.42 0 0.01 45.66 0 91.32 0.01 136.99 11.29 0.13 22.58 0.05 33.87 0.04 0.57 1.16 1.72 2.14 1.69 3.53 0.14 9.04-0.07 18.09 0.1 27.14-1.31 0.95-2.6 2.26-4.37 2.06-25.37 0.02-50.74 0.02-76.11 0-1.94-0.02-5.08-0.76-4.6-3.32-0.02-55.48 0-110.96-0.01-166.44z" p-id="2512" fill="#2395ff"></path></svg>